# xmcd
#
# Track frame offsets:
#	150
#	18197
#	33701
#	52385
#	67091
#	78832
#	105661
#	121691
#	138117
#	154199
#	170161
#	189098
#	209866
#	227031
#	245850
#	264690
#	279851
#	293845
#	308924
#	326198
#
# Disc length: 4602 seconds
#
# Revision: 3
# Processed by: cddbd v1.5.2PL0 Copyright (c) Steve Scherf et al.
# Submitted via: audiograbber 1.83.01
#
DISCID=2e11f814
DTITLE=Various Artist - Zoom Pop Box 2015 Disc 5
DYEAR=2014
DGENRE=Karaoke
TTITLE0=One Republc - Love Runs Out
TTITLE1=Paloma Faith - Can't Rely On You
TTITLE2=Paloma Faith - Only Love Can Hurt Like This
TTITLE3=Paloma Faith - Trouble With My Baby
TTITLE4=Paul Heaton and Jacqui Abbott - D.I.Y
TTITLE5=Pharrell Williams - Marilyn Monroe
TTITLE6=Pharrell Williams and Miley Cyrus (For Solo Male) - Come Get It Bae
TTITLE7=Pitbull and Ke$ha - Timber 
TTITLE8=Rita Ora - I Will Never Let You Down
TTITLE9=Rixton - Me And My Broken Heart
TTITLE10=Rixton - Wait On Me
TTITLE11=Route 94 and Jess Glynne - My Love 
TTITLE12=Royal Blood - Little Monster
TTITLE13=Royal Blood - Out Of The Black
TTITLE14=Sam Smith - I'm Not The Only One
TTITLE15=Sam Smith - Money On My Mind
TTITLE16=Sam Smith - Stay With Me
TTITLE17=Secondcity and Ali Love - What Can I Do
TTITLE18=Sia - Chandeller
TTITLE19=Sigma - Nobody To Love
EXTD=
EXTT0=
EXTT1=
EXTT2=
EXTT3=
EXTT4=
EXTT5=
EXTT6=
EXTT7=
EXTT8=
EXTT9=
EXTT10=
EXTT11=
EXTT12=
EXTT13=
EXTT14=
EXTT15=
EXTT16=
EXTT17=
EXTT18=
EXTT19=
PLAYORDER=
